<svg width="198" height="39" viewBox="0 0 198 39" fill="none" xmlns="http://www.w3.org/2000/svg">
<path d="M24.744 14.864C24.744 16.656 24.312 18.336 23.448 19.904C22.616 21.472 21.288 22.736 19.464 23.696C17.672 24.656 15.4 25.136 12.648 25.136H7.032V38H0.312V4.496H12.648C15.24 4.496 17.448 4.944 19.272 5.84C21.096 6.736 22.456 7.968 23.352 9.536C24.28 11.104 24.744 12.88 24.744 14.864ZM12.36 19.712C14.216 19.712 15.592 19.296 16.488 18.464C17.384 17.6 17.832 16.4 17.832 14.864C17.832 11.6 16.008 9.968 12.36 9.968H7.032V19.712H12.36ZM41.3231 38.432C38.7631 38.432 36.4591 37.872 34.4111 36.752C32.3631 35.6 30.7471 33.984 29.5631 31.904C28.4111 29.824 27.8351 27.424 27.8351 24.704C27.8351 21.984 28.4271 19.584 29.6111 17.504C30.8271 15.424 32.4751 13.824 34.5551 12.704C36.6351 11.552 38.9551 10.976 41.5151 10.976C44.0751 10.976 46.3951 11.552 48.4751 12.704C50.5551 13.824 52.1871 15.424 53.3711 17.504C54.5871 19.584 55.1951 21.984 55.1951 24.704C55.1951 27.424 54.5711 29.824 53.3231 31.904C52.1071 33.984 50.4431 35.6 48.3311 36.752C46.2511 37.872 43.9151 38.432 41.3231 38.432ZM41.3231 32.576C42.5391 32.576 43.6751 32.288 44.7311 31.712C45.8191 31.104 46.6831 30.208 47.3231 29.024C47.9631 27.84 48.2831 26.4 48.2831 24.704C48.2831 22.176 47.6111 20.24 46.2671 18.896C44.9551 17.52 43.3391 16.832 41.4191 16.832C39.4991 16.832 37.8831 17.52 36.5711 18.896C35.2911 20.24 34.6511 22.176 34.6511 24.704C34.6511 27.232 35.2751 29.184 36.5231 30.56C37.8031 31.904 39.4031 32.576 41.3231 32.576ZM66.8445 15.536C67.7085 14.128 68.8285 13.024 70.2045 12.224C71.6125 11.424 73.2125 11.024 75.0045 11.024V18.08H73.2285C71.1165 18.08 69.5165 18.576 68.4285 19.568C67.3725 20.56 66.8445 22.288 66.8445 24.752V38H60.1245V11.408H66.8445V15.536ZM87.3548 16.928V29.792C87.3548 30.688 87.5628 31.344 87.9788 31.76C88.4268 32.144 89.1628 32.336 90.1868 32.336H93.3068V38H89.0828C83.4188 38 80.5868 35.248 80.5868 29.744V16.928H77.4188V11.408H80.5868V4.832H87.3548V11.408H93.3068V16.928H87.3548ZM110.332 16.928H105.676V38H98.8601V16.928H95.8361V11.408H98.8601V10.064C98.8601 6.8 99.7881 4.4 101.644 2.864C103.5 1.328 106.3 0.607999 110.044 0.704V6.368C108.412 6.336 107.276 6.608 106.636 7.184C105.996 7.76 105.676 8.8 105.676 10.304V11.408H110.332V16.928ZM126.495 38.432C123.935 38.432 121.631 37.872 119.583 36.752C117.535 35.6 115.919 33.984 114.735 31.904C113.583 29.824 113.007 27.424 113.007 24.704C113.007 21.984 113.599 19.584 114.783 17.504C115.999 15.424 117.647 13.824 119.727 12.704C121.807 11.552 124.127 10.976 126.687 10.976C129.247 10.976 131.567 11.552 133.647 12.704C135.727 13.824 137.359 15.424 138.543 17.504C139.759 19.584 140.367 21.984 140.367 24.704C140.367 27.424 139.743 29.824 138.495 31.904C137.279 33.984 135.615 35.6 133.503 36.752C131.423 37.872 129.087 38.432 126.495 38.432ZM126.495 32.576C127.711 32.576 128.847 32.288 129.903 31.712C130.991 31.104 131.855 30.208 132.495 29.024C133.135 27.84 133.455 26.4 133.455 24.704C133.455 22.176 132.783 20.24 131.439 18.896C130.127 17.52 128.511 16.832 126.591 16.832C124.671 16.832 123.055 17.52 121.743 18.896C120.463 20.24 119.823 22.176 119.823 24.704C119.823 27.232 120.447 29.184 121.695 30.56C122.975 31.904 124.575 32.576 126.495 32.576ZM152.016 2.48V38H145.296V2.48H152.016ZM162.064 8.24C160.88 8.24 159.888 7.872 159.088 7.136C158.32 6.368 157.936 5.424 157.936 4.304C157.936 3.184 158.32 2.256 159.088 1.52C159.888 0.751998 160.88 0.367998 162.064 0.367998C163.248 0.367998 164.224 0.751998 164.992 1.52C165.792 2.256 166.192 3.184 166.192 4.304C166.192 5.424 165.792 6.368 164.992 7.136C164.224 7.872 163.248 8.24 162.064 8.24ZM165.376 11.408V38H158.656V11.408H165.376ZM183.823 38.432C181.263 38.432 178.959 37.872 176.911 36.752C174.863 35.6 173.247 33.984 172.063 31.904C170.911 29.824 170.335 27.424 170.335 24.704C170.335 21.984 170.927 19.584 172.111 17.504C173.327 15.424 174.975 13.824 177.055 12.704C179.135 11.552 181.455 10.976 184.015 10.976C186.575 10.976 188.895 11.552 190.975 12.704C193.055 13.824 194.687 15.424 195.871 17.504C197.087 19.584 197.695 21.984 197.695 24.704C197.695 27.424 197.071 29.824 195.823 31.904C194.607 33.984 192.943 35.6 190.831 36.752C188.751 37.872 186.415 38.432 183.823 38.432ZM183.823 32.576C185.039 32.576 186.175 32.288 187.231 31.712C188.319 31.104 189.183 30.208 189.823 29.024C190.463 27.84 190.783 26.4 190.783 24.704C190.783 22.176 190.111 20.24 188.767 18.896C187.455 17.52 185.839 16.832 183.919 16.832C181.999 16.832 180.383 17.52 179.071 18.896C177.791 20.24 177.151 22.176 177.151 24.704C177.151 27.232 177.775 29.184 179.023 30.56C180.303 31.904 181.903 32.576 183.823 32.576Z" fill="#222222"/>
</svg>
